<svg xmlns="http://www.w3.org/2000/svg" xmlns:xlink="http://www.w3.org/1999/xlink" width="46" zoomAndPan="magnify" viewBox="0 0 34.5 38.999999" height="52" preserveAspectRatio="xMidYMid meet" version="1.0"><defs><clipPath id="82206e35cf"><path d="M 1.386719 0.277344 L 32.4375 0.277344 L 32.4375 38.71875 L 1.386719 38.71875 Z M 1.386719 0.277344 " clip-rule="nonzero"/></clipPath></defs><g clip-path="url(#82206e35cf)"><path fill="#000000" d="M 28.417969 8.085938 L 24.613281 8.085938 C 24.613281 3.882812 21.207031 0.476562 17.003906 0.476562 C 12.800781 0.476562 9.394531 3.882812 9.394531 8.085938 L 5.589844 8.085938 C 3.5 8.085938 1.785156 9.796875 1.785156 11.890625 L 1.785156 34.714844 C 1.785156 36.808594 3.5 38.519531 5.589844 38.519531 L 28.417969 38.519531 C 30.507812 38.519531 32.21875 36.808594 32.21875 34.714844 L 32.21875 11.890625 C 32.21875 9.796875 30.507812 8.085938 28.417969 8.085938 Z M 17.003906 4.28125 C 19.097656 4.28125 20.808594 5.996094 20.808594 8.085938 L 13.199219 8.085938 C 13.199219 5.996094 14.910156 4.28125 17.003906 4.28125 Z M 28.417969 34.714844 L 5.589844 34.714844 L 5.589844 11.890625 L 9.394531 11.890625 L 9.394531 15.695312 C 9.394531 16.742188 10.25 17.597656 11.296875 17.597656 C 12.34375 17.597656 13.199219 16.742188 13.199219 15.695312 L 13.199219 11.890625 L 20.808594 11.890625 L 20.808594 15.695312 C 20.808594 16.742188 21.664062 17.597656 22.710938 17.597656 C 23.757812 17.597656 24.613281 16.742188 24.613281 15.695312 L 24.613281 11.890625 L 28.417969 11.890625 Z M 28.417969 34.714844 " fill-opacity="1" fill-rule="nonzero"/></g></svg>