<svg xmlns="http://www.w3.org/2000/svg" xmlns:xlink="http://www.w3.org/1999/xlink" width="46" zoomAndPan="magnify" viewBox="0 0 34.5 38.999999" height="52" preserveAspectRatio="xMidYMid meet" version="1.0"><defs><clipPath id="0022ab7c0d"><path d="M 10.203125 14.058594 L 23.507812 14.058594 L 23.507812 25 L 10.203125 25 Z M 10.203125 14.058594 " clip-rule="nonzero"/></clipPath><clipPath id="bb5df702d3"><path d="M 23.796875 15.421875 C 23.796875 14.671875 23.1875 14.0625 22.4375 14.0625 L 11.5625 14.0625 C 10.8125 14.0625 10.203125 14.671875 10.203125 15.421875 L 10.203125 23.578125 C 10.203125 24.324219 10.8125 24.9375 11.5625 24.9375 L 22.4375 24.9375 C 23.1875 24.9375 23.796875 24.324219 23.796875 23.578125 Z M 22.4375 15.421875 L 17 18.8125 L 11.5625 15.421875 Z M 22.4375 23.578125 L 11.5625 23.578125 L 11.5625 16.78125 L 17 20.179688 L 22.4375 16.78125 Z M 22.4375 23.578125 " clip-rule="nonzero"/></clipPath></defs><g clip-path="url(#0022ab7c0d)"><g clip-path="url(#bb5df702d3)"><path fill="#000000" d="M 10.203125 14.0625 L 10.203125 24.9375 L 23.507812 24.9375 L 23.507812 14.0625 Z M 10.203125 14.0625 " fill-opacity="1" fill-rule="nonzero"/></g></g></svg>