<svg xmlns="http://www.w3.org/2000/svg" xmlns:xlink="http://www.w3.org/1999/xlink" width="46" zoomAndPan="magnify" viewBox="0 0 34.5 38.999999" height="52" preserveAspectRatio="xMidYMid meet" version="1.0"><defs><clipPath id="66865196b5"><path d="M 0 0.277344 L 34.007812 0.277344 L 34.007812 38.71875 L 0 38.71875 Z M 0 0.277344 " clip-rule="nonzero"/></clipPath><clipPath id="bc3c7b93a8"><path d="M 0 3.953125 L 34.007812 3.953125 L 34.007812 35.003906 L 0 35.003906 Z M 0 3.953125 " clip-rule="nonzero"/></clipPath><clipPath id="2d8ed97c84"><path d="M 24.6875 3.953125 C 21.738281 3.953125 18.910156 5.324219 17.0625 7.496094 C 15.214844 5.324219 12.386719 3.953125 9.441406 3.953125 C 4.222656 3.953125 0.125 8.054688 0.125 13.269531 C 0.125 19.675781 5.882812 24.890625 14.605469 32.820312 L 17.0625 35.039062 L 19.519531 32.800781 C 28.242188 24.890625 34.003906 19.675781 34.003906 13.269531 C 34.003906 8.054688 29.902344 3.953125 24.6875 3.953125 Z M 17.234375 30.296875 L 17.0625 30.464844 L 16.894531 30.296875 C 8.832031 22.996094 3.511719 18.167969 3.511719 13.269531 C 3.511719 9.882812 6.050781 7.34375 9.441406 7.34375 C 12.050781 7.34375 14.589844 9.019531 15.488281 11.339844 L 18.65625 11.339844 C 19.535156 9.019531 22.078125 7.34375 24.6875 7.34375 C 28.074219 7.34375 30.613281 9.882812 30.613281 13.269531 C 30.613281 18.167969 25.296875 22.996094 17.234375 30.296875 Z M 17.234375 30.296875 " clip-rule="nonzero"/></clipPath></defs><g clip-path="url(#66865196b5)"><path fill="#ffffff" d="M 0 0.277344 L 34.007812 0.277344 L 34.007812 38.722656 L 0 38.722656 Z M 0 0.277344 " fill-opacity="1" fill-rule="nonzero"/><path fill="#ffffff" d="M 0 0.277344 L 34.007812 0.277344 L 34.007812 38.722656 L 0 38.722656 Z M 0 0.277344 " fill-opacity="1" fill-rule="nonzero"/></g><g clip-path="url(#bc3c7b93a8)"><g clip-path="url(#2d8ed97c84)"><path fill="#000000" d="M 0.125 3.953125 L 0.125 35.003906 L 34.003906 35.003906 L 34.003906 3.953125 Z M 0.125 3.953125 " fill-opacity="1" fill-rule="nonzero"/></g></g></svg>